<?xml version="1.0" encoding="UTF-8"?>
<svg version="1.1" xmlns="http://www.w3.org/2000/svg" width="129" height="131">
<path d="M0 0 C42.57 0 85.14 0 129 0 C129 43.23 129 86.46 129 131 C86.43 131 43.86 131 0 131 C0 87.77 0 44.54 0 0 Z " fill="#175893" transform="translate(0,0)"/>
<path d="M0 0 C2.02139031 0.74974849 4.05047179 1.47499262 6.08129883 2.19873047 C7.3884715 2.67774983 8.69513133 3.15817149 10.0012207 3.64013672 C11.16935303 4.06842773 12.33748535 4.49671875 13.54101562 4.93798828 C17.66407848 6.89357672 21.72614413 9.28529607 23.83325195 13.49951172 C23.93211232 15.93632655 23.97309129 18.34381303 23.96606445 20.78076172 C23.96702118 21.50888062 23.96797791 22.23699951 23.96896362 22.98718262 C23.9696451 24.53393642 23.96779304 26.08069307 23.96362305 27.62744141 C23.95833583 29.96247046 23.96353677 32.29730167 23.9699707 34.63232422 C23.97964754 52.91505413 22.28735306 69.67168558 8.83325195 83.49951172 C8.17325195 83.49951172 7.51325195 83.49951172 6.83325195 83.49951172 C6.50647461 84.340625 6.50647461 84.340625 6.1730957 85.19873047 C1.8361194 92.64619123 -10.35109228 101.20933444 -18.16674805 104.49951172 C-30.7785428 103.8452033 -41.96144228 91.08944119 -50.16674805 82.49951172 C-63.01105472 67.81754069 -64.54349908 50.42040691 -64.59228516 31.67382812 C-64.6043954 29.47272947 -64.65398914 27.27425963 -64.70385742 25.07373047 C-64.7133037 23.65317091 -64.72054729 22.2325946 -64.7253418 20.81201172 C-64.73879639 19.55001953 -64.75225098 18.28802734 -64.76611328 16.98779297 C-63.96554398 12.32851223 -62.52628811 10.79260996 -59.16674805 7.49951172 C-57.140625 6.27099609 -57.140625 6.27099609 -55.1550293 5.59326172 C-54.40592285 5.32707031 -53.65681641 5.06087891 -52.88500977 4.78662109 C-52.0911084 4.526875 -51.29720703 4.26712891 -50.47924805 3.99951172 C-49.64925293 3.71398438 -48.81925781 3.42845703 -47.96411133 3.13427734 C-46.23332418 2.5413134 -44.49986484 1.95609614 -42.76391602 1.37841797 C-40.23636252 0.52306992 -37.73502065 -0.38551606 -35.2331543 -1.31298828 C-33.66970321 -1.87646314 -32.10591413 -2.43900127 -30.54174805 -3.00048828 C-29.8331665 -3.26796875 -29.12458496 -3.53544922 -28.39453125 -3.81103516 C-18.33405635 -7.29800497 -9.5349753 -3.55108446 0 0 Z " fill="#175893" transform="translate(84.166748046875,16.50048828125)"/>
<path d="M0 0 C2.02139031 0.74974849 4.05047179 1.47499262 6.08129883 2.19873047 C7.3884715 2.67774983 8.69513133 3.15817149 10.0012207 3.64013672 C11.16935303 4.06842773 12.33748535 4.49671875 13.54101562 4.93798828 C17.66407848 6.89357672 21.72614413 9.28529607 23.83325195 13.49951172 C23.93211232 15.93632655 23.97309129 18.34381303 23.96606445 20.78076172 C23.96702118 21.50888062 23.96797791 22.23699951 23.96896362 22.98718262 C23.9696451 24.53393642 23.96779304 26.08069307 23.96362305 27.62744141 C23.95833583 29.96247046 23.96353677 32.29730167 23.9699707 34.63232422 C23.97964754 52.91505413 22.28735306 69.67168558 8.83325195 83.49951172 C8.17325195 83.49951172 7.51325195 83.49951172 6.83325195 83.49951172 C6.50647461 84.340625 6.50647461 84.340625 6.1730957 85.19873047 C1.8361194 92.64619123 -10.35109228 101.20933444 -18.16674805 104.49951172 C-30.7785428 103.8452033 -41.96144228 91.08944119 -50.16674805 82.49951172 C-63.01105472 67.81754069 -64.54349908 50.42040691 -64.59228516 31.67382812 C-64.6043954 29.47272947 -64.65398914 27.27425963 -64.70385742 25.07373047 C-64.7133037 23.65317091 -64.72054729 22.2325946 -64.7253418 20.81201172 C-64.73879639 19.55001953 -64.75225098 18.28802734 -64.76611328 16.98779297 C-63.96554398 12.32851223 -62.52628811 10.79260996 -59.16674805 7.49951172 C-57.140625 6.27099609 -57.140625 6.27099609 -55.1550293 5.59326172 C-54.40592285 5.32707031 -53.65681641 5.06087891 -52.88500977 4.78662109 C-52.0911084 4.526875 -51.29720703 4.26712891 -50.47924805 3.99951172 C-49.64925293 3.71398438 -48.81925781 3.42845703 -47.96411133 3.13427734 C-46.23332418 2.5413134 -44.49986484 1.95609614 -42.76391602 1.37841797 C-40.23636252 0.52306992 -37.73502065 -0.38551606 -35.2331543 -1.31298828 C-33.66970321 -1.87646314 -32.10591413 -2.43900127 -30.54174805 -3.00048828 C-29.8331665 -3.26796875 -29.12458496 -3.53544922 -28.39453125 -3.81103516 C-18.33405635 -7.29800497 -9.5349753 -3.55108446 0 0 Z M-27.29174805 6.06201172 C-33.36635975 8.628489 -39.54681744 10.8685826 -45.74145508 13.12475586 C-46.54180176 13.41729248 -47.34214844 13.7098291 -48.16674805 14.01123047 C-48.88862305 14.27379639 -49.61049805 14.5363623 -50.35424805 14.80688477 C-52.22562583 15.48792021 -52.22562583 15.48792021 -54.16674805 16.49951172 C-54.24227552 20.78211286 -54.29598107 25.0643365 -54.33154297 29.34741211 C-54.34640506 30.79702526 -54.36670072 32.24659537 -54.39306641 33.69604492 C-54.67314839 49.51793084 -53.67436999 64.59952891 -42.2487793 76.63623047 C-39.28868587 79.66342358 -36.23636876 82.58379956 -33.16674805 85.49951172 C-32.10133789 86.59199219 -32.10133789 86.59199219 -31.0144043 87.70654297 C-28.24173845 90.39714259 -25.67461396 91.83789102 -22.16674805 93.49951172 C-19.32820372 93.31027543 -17.68306553 92.75767046 -15.16674805 91.49951172 C-15.16674805 90.83951172 -15.16674805 90.17951172 -15.16674805 89.49951172 C-14.44487305 89.25201172 -13.72299805 89.00451172 -12.97924805 88.74951172 C-9.89068223 87.3768158 -7.65663387 85.77597876 -5.16674805 83.49951172 C-5.16674805 82.83951172 -5.16674805 82.17951172 -5.16674805 81.49951172 C-4.57506836 81.23654297 -3.98338867 80.97357422 -3.3737793 80.70263672 C4.7558168 76.2709277 10.11282026 66.07582157 12.83325195 57.49951172 C14.26566372 50.9157645 14.58582139 44.21512723 14.83325195 37.49951172 C14.8703125 36.60780273 14.90737305 35.71609375 14.94555664 34.79736328 C15.04141457 32.17693013 15.10363144 29.55882427 15.14575195 26.93701172 C15.16371826 26.13368408 15.18168457 25.33035645 15.20019531 24.50268555 C15.30756611 20.42632543 15.30756611 20.42632543 13.58032227 16.88647461 C11.62411707 15.33348387 9.83823279 14.48119717 7.5168457 13.56201172 C6.66928711 13.22427734 5.82172852 12.88654297 4.94848633 12.53857422 C4.06483398 12.19568359 3.18118164 11.85279297 2.27075195 11.49951172 C0.98587891 10.98517578 0.98587891 10.98517578 -0.32495117 10.46044922 C-13.57112368 4.61494096 -13.57112368 4.61494096 -27.29174805 6.06201172 Z " fill="#2996E9" transform="translate(84.166748046875,16.50048828125)"/>
<path d="M0 0 C2.67676107 2.33137254 2.96621485 3.57768562 3.25 7.125 C3 10 3 10 2 12 C1.34 12 0.68 12 0 12 C0 12.66 0 13.32 0 14 C-6.54382702 15.25842827 -6.54382702 15.25842827 -8.703125 14.03515625 C-12.20169541 12.45841959 -15.73617776 12.75179319 -19.5 12.8125 C-20.25925781 12.81314453 -21.01851562 12.81378906 -21.80078125 12.81445312 C-25.36241141 12.84252201 -28.57420841 13.04282161 -32 14 C-32.08004482 17.5219721 -32.04005702 20.61981469 -31 24 C-28.67118833 24.81069497 -27.48649273 25.20434769 -25.16796875 24.23046875 C-24.51441406 23.88628906 -23.86085938 23.54210937 -23.1875 23.1875 C-18.34603702 21.3961587 -14.77886588 22.68630877 -10.1875 24.5625 C-9.21816528 24.95828247 -9.21816528 24.95828247 -8.22924805 25.36206055 C-3.59810751 27.4118305 0.00480325 29.45575786 1.8984375 34.296875 C2.97567161 39.84198175 3.78068433 44.86316329 1 50 C-3.12406177 54.85848373 -6.57586295 57.37598669 -13 58 C-15.14585532 58.01843066 -17.29238307 57.99672892 -19.4375 57.9375 C-23.24795283 57.88120922 -26.36863076 57.88777536 -29.9375 59.25 C-33 60 -33 60 -36.375 58.5625 C-39 56 -39 56 -40.1875 52.5625 C-40 49 -40 49 -37.9375 46.0625 C-34.52047879 43.66331489 -33.08216478 43.30516344 -29 44 C-28.401875 44.474375 -27.80375 44.94875 -27.1875 45.4375 C-23.75915179 47.88632015 -20.14687162 48.0209086 -16 48 C-11.63466228 47.3011883 -11.63466228 47.3011883 -8 45 C-7.92820036 43.48071962 -7.91607993 41.95832518 -7.9375 40.4375 C-7.94652344 39.61121094 -7.95554688 38.78492188 -7.96484375 37.93359375 C-7.97644531 37.29550781 -7.98804688 36.65742187 -8 36 C-12.14093698 35.79029441 -12.14093698 35.79029441 -16 37 C-22.47058824 37.35294118 -22.47058824 37.35294118 -26 35 C-27.61628879 34.55072651 -29.24267903 34.13699403 -30.875 33.75 C-36.07586588 32.26186903 -38.08468684 30.51403328 -41 26 C-42.86080151 20.41759548 -42.93825348 14.94868031 -40.375 9.625 C-36.55946821 5.40783329 -33.23099593 2.83455866 -27.46875 2.49609375 C-25.81282478 2.45792059 -24.15636466 2.438788 -22.5 2.4375 C-14.53480153 2.39414355 -7.45394218 -2.10960628 0 0 Z " fill="#2795E8" transform="translate(83,33)"/>
<path d="M0 0 C-1.42913847 0.72505558 -2.86870658 1.42958435 -4.3125 2.125 C-5.11300781 2.51945312 -5.91351563 2.91390625 -6.73828125 3.3203125 C-7.48464844 3.54460938 -8.23101562 3.76890625 -9 4 C-9.99 3.34 -10.98 2.68 -12 2 C-10.56656 1.46809459 -9.12804633 0.94984742 -7.6875 0.4375 C-6.48673828 0.00244141 -6.48673828 0.00244141 -5.26171875 -0.44140625 C-3 -1 -3 -1 0 0 Z " fill="#2486D2" transform="translate(53,16)"/>
</svg>
